<svg width="48" height="48" viewBox="0 0 48 48" xmlns="http://www.w3.org/2000/svg">
  <!-- Car icon based on the provided image -->
  <g transform="translate(24, 24)">
    <!-- Car body -->
    <path d="M -12,-10 L -10,-6 L -10,8 L -8,12 L 8,12 L 10,8 L 10,-6 L 12,-10 Z" 
          fill="#ff5722" 
          stroke="#d84315" 
          stroke-width="1"/>
    
    <!-- Roof -->
    <rect x="-9" y="-6" width="18" height="8" fill="#ff6f3c" opacity="0.9" stroke="#d84315" stroke-width="0.5" rx="2"/>
    
    <!-- Windshield -->
    <rect x="-8" y="-5" width="16" height="3" fill="#5d4037" opacity="0.8"/>
    
    <!-- Windows -->
    <rect x="-8" y="1" width="6" height="4" fill="#5d4037" opacity="0.7"/>
    <rect x="2" y="1" width="6" height="4" fill="#5d4037" opacity="0.7"/>
    
    <!-- Front wheels -->
    <circle cx="-7" cy="13" r="3.5" fill="#212121"/>
    <circle cx="-7" cy="13" r="2" fill="#424242"/>
    <circle cx="-7" cy="13" r="0.8" fill="#757575"/>
    
    <!-- Rear wheels -->
    <circle cx="7" cy="13" r="3.5" fill="#212121"/>
    <circle cx="7" cy="13" r="2" fill="#424242"/>
    <circle cx="7" cy="13" r="0.8" fill="#757575"/>
    
    <!-- Headlights -->
    <circle cx="-6" cy="-9" r="1.5" fill="#fff9c4"/>
    <circle cx="6" cy="-9" r="1.5" fill="#fff9c4"/>
    
    <!-- Side mirror highlight -->
    <ellipse cx="-10" cy="-2" rx="1" ry="2" fill="#ff7043"/>
    <ellipse cx="10" cy="-2" rx="1" ry="2" fill="#ff7043"/>
  </g>
</svg>
