<svg width="64" height="64" viewBox="0 0 64 64" xmlns="http://www.w3.org/2000/svg"><svg width="48" height="48" viewBox="0 0 48 48" xmlns="http://www.w3.org/2000/svg">

  <!-- Gradient Definitions -->  <!-- Car icon based on the provided image -->

  <defs>  <g transform="translate(24, 24)">

    <linearGradient id="carGradient" x1="0%" y1="0%" x2="100%" y2="100%">    <!-- Car body -->

      <stop offset="0%" style="stop-color:#FFC107;stop-opacity:1" />    <path d="M -12,-10 L -10,-6 L -10,8 L -8,12 L 8,12 L 10,8 L 10,-6 L 12,-10 Z" 

      <stop offset="100%" style="stop-color:#FFA000;stop-opacity:1" />          fill="#ff5722" 

    </linearGradient>          stroke="#d84315" 

    <linearGradient id="carAccent" x1="0%" y1="0%" x2="100%" y2="100%">          stroke-width="1"/>

      <stop offset="0%" style="stop-color:#212121;stop-opacity:1" />    

      <stop offset="100%" style="stop-color:#424242;stop-opacity:1" />    <!-- Roof -->

    </linearGradient>    <rect x="-9" y="-6" width="18" height="8" fill="#ff6f3c" opacity="0.9" stroke="#d84315" stroke-width="0.5" rx="2"/>

    <radialGradient id="carWheelGradient">    

      <stop offset="0%" style="stop-color:#424242;stop-opacity:1" />    <!-- Windshield -->

      <stop offset="100%" style="stop-color:#212121;stop-opacity:1" />    <rect x="-8" y="-5" width="16" height="3" fill="#5d4037" opacity="0.8"/>

    </radialGradient>    

    <linearGradient id="windowGradient" x1="0%" y1="0%" x2="0%" y2="100%">    <!-- Windows -->

      <stop offset="0%" style="stop-color:#424242;stop-opacity:0.4" />    <rect x="-8" y="1" width="6" height="4" fill="#5d4037" opacity="0.7"/>

      <stop offset="100%" style="stop-color:#212121;stop-opacity:0.6" />    <rect x="2" y="1" width="6" height="4" fill="#5d4037" opacity="0.7"/>

    </linearGradient>    

  </defs>    <!-- Front wheels -->

      <circle cx="-7" cy="13" r="3.5" fill="#212121"/>

  <!-- Car/Sedan Icon -->    <circle cx="-7" cy="13" r="2" fill="#424242"/>

  <g transform="translate(32, 32)">    <circle cx="-7" cy="13" r="0.8" fill="#757575"/>

    <!-- Roof -->    

    <path d="M -8,-12 L -6,-16 L 6,-16 L 8,-12 Z"     <!-- Rear wheels -->

          fill="url(#carGradient)"     <circle cx="7" cy="13" r="3.5" fill="#212121"/>

          stroke="#FFA000"     <circle cx="7" cy="13" r="2" fill="#424242"/>

          stroke-width="0.5"/>    <circle cx="7" cy="13" r="0.8" fill="#757575"/>

        

    <!-- Windshield -->    <!-- Headlights -->

    <path d="M -6,-16 L -8,-12 L 8,-12 L 6,-16 Z"     <circle cx="-6" cy="-9" r="1.5" fill="#fff9c4"/>

          fill="url(#windowGradient)"/>    <circle cx="6" cy="-9" r="1.5" fill="#fff9c4"/>

        

    <!-- Main Body -->    <!-- Side mirror highlight -->

    <rect x="-14" y="-12" width="28" height="12" rx="2"     <ellipse cx="-10" cy="-2" rx="1" ry="2" fill="#ff7043"/>

          fill="url(#carGradient)"     <ellipse cx="10" cy="-2" rx="1" ry="2" fill="#ff7043"/>

          stroke="#FFA000"   </g>

          stroke-width="1"/></svg>

    
    <!-- Side Windows -->
    <rect x="-12" y="-10" width="8" height="6" rx="1" 
          fill="url(#windowGradient)"/>
    <rect x="4" y="-10" width="8" height="6" rx="1" 
          fill="url(#windowGradient)"/>
    
    <!-- Door Lines -->
    <line x1="-3" y1="-12" x2="-3" y2="0" 
          stroke="#FFA000" 
          stroke-width="0.5"/>
    <line x1="3" y1="-12" x2="3" y2="0" 
          stroke="#FFA000" 
          stroke-width="0.5"/>
    
    <!-- Bottom Chassis -->
    <rect x="-14" y="0" width="28" height="3" rx="1" 
          fill="url(#carAccent)"/>
    
    <!-- Front Wheel -->
    <circle cx="-9" cy="5" r="5" 
            fill="url(#carWheelGradient)" 
            stroke="#FFC107" 
            stroke-width="1.5"/>
    <circle cx="-9" cy="5" r="2.5" fill="#FFC107"/>
    
    <!-- Rear Wheel -->
    <circle cx="9" cy="5" r="5" 
            fill="url(#carWheelGradient)" 
            stroke="#FFC107" 
            stroke-width="1.5"/>
    <circle cx="9" cy="5" r="2.5" fill="#FFC107"/>
    
    <!-- Headlights -->
    <rect x="-14" y="-8" width="2" height="3" rx="1" 
          fill="#FFC107" 
          opacity="0.8"/>
    
    <!-- Taillights -->
    <rect x="12" y="-8" width="2" height="3" rx="1" 
          fill="#FFC107" 
          opacity="0.8"/>
    
    <!-- Side Mirror -->
    <rect x="-15" y="-8" width="1" height="2" fill="url(#carAccent)"/>
    <rect x="14" y="-8" width="1" height="2" fill="url(#carAccent)"/>
    
    <!-- Hood Detail -->
    <line x1="-10" y1="-12" x2="-12" y2="-4" 
          stroke="#FFA000" 
          stroke-width="0.3" 
          opacity="0.5"/>
    <line x1="10" y1="-12" x2="12" y2="-4" 
          stroke="#FFA000" 
          stroke-width="0.3" 
          opacity="0.5"/>
  </g>
</svg>
